<svg width="25" height="23" viewBox="0 0 25 23" fill="none" xmlns="http://www.w3.org/2000/svg">
<path d="M12.5 0C14.8244 0 16.7086 1.88232 16.7086 4.20435C16.7086 6.25051 15.2308 8.0023 13.2173 8.34748V11.3498L17.8802 14.7342C18.5416 14.3019 19.332 14.0506 20.181 14.0506C22.5053 14.0506 24.3895 15.9333 24.3895 18.255C24.3895 20.5767 22.5053 22.4593 20.181 22.4593C17.8569 22.4593 15.9727 20.5767 15.9727 18.255C15.9727 17.3076 16.2863 16.4332 16.816 15.7301L12.5 12.5976L8.18436 15.7301C8.71376 16.4332 9.02762 17.3076 9.02762 18.255C9.02762 20.5767 7.14342 22.4593 4.81906 22.4593C2.49504 22.4593 0.61084 20.5767 0.61084 18.255C0.61084 15.9333 2.49504 14.0506 4.81906 14.0506C5.66838 14.0506 6.45877 14.3019 7.11984 14.7342L11.783 11.3498V8.34748C9.76918 8.0023 8.29179 6.25051 8.29179 4.20435C8.29179 1.88232 10.176 0 12.5 0Z" fill="white"/>
</svg>
