<svg width="17" height="19" viewBox="0 0 17 19" fill="none" xmlns="http://www.w3.org/2000/svg">
<path d="M7.96385 14.8965C7.60973 15.0217 7.31128 15.268 7.12124 15.592C6.9312 15.916 6.8618 16.2967 6.92531 16.6669C6.98882 17.0371 7.18116 17.3729 7.46832 17.615C7.75548 17.857 8.11899 17.9898 8.49458 17.9898C8.87017 17.9898 9.23367 17.857 9.52083 17.615C9.808 17.3729 10.0003 17.0371 10.0638 16.6669C10.1274 16.2967 10.058 15.916 9.86792 15.592C9.67787 15.268 9.37942 15.0217 9.02531 14.8965V12.6761H11.679C12.3085 12.6778 12.917 12.9034 13.3954 13.3126C13.8738 13.7219 14.191 14.288 14.2902 14.9097C13.9378 15.0438 13.6441 15.2983 13.4613 15.628C13.2784 15.9578 13.2181 16.3416 13.2911 16.7116C13.364 17.0816 13.5655 17.4138 13.8598 17.6495C14.1541 17.8852 14.5224 18.0092 14.8993 17.9995C15.2763 17.9898 15.6376 17.8471 15.9195 17.5965C16.2013 17.346 16.3854 17.0039 16.4393 16.6307C16.4931 16.2575 16.4132 15.8772 16.2136 15.5573C16.0141 15.2373 15.7078 14.9983 15.3489 14.8825C15.2415 13.9837 14.809 13.1553 14.133 12.5533C13.457 11.9514 12.5841 11.6175 11.679 11.6146H9.02531V8.43025H11.1482C11.7113 8.43025 12.2513 8.20659 12.6494 7.80846C13.0475 7.41034 13.2712 6.87036 13.2712 6.30732V3.12293C13.2712 2.55989 13.0475 2.01992 12.6494 1.62179C12.2513 1.22367 11.7113 1 11.1482 1H5.84092C5.27788 1 4.7379 1.22367 4.33978 1.62179C3.94165 2.01992 3.71799 2.55989 3.71799 3.12293V6.30732C3.71799 6.87036 3.94165 7.41034 4.33978 7.80846C4.7379 8.20659 5.27788 8.43025 5.84092 8.43025H7.96385V11.6146H5.31018C4.40503 11.6175 3.53219 11.9514 2.85619 12.5534C2.18019 13.1553 1.74771 13.9837 1.64027 14.8825C1.28438 14.9983 0.980871 15.2361 0.78337 15.554C0.58587 15.8719 0.507093 16.2494 0.560958 16.6198C0.614823 16.9901 0.797863 17.3295 1.07774 17.578C1.35761 17.8265 1.7163 17.968 2.09043 17.9777C2.46457 17.9873 2.83006 17.8643 3.12233 17.6306C3.4146 17.3968 3.61483 17.0673 3.68766 16.7002C3.76048 16.3331 3.7012 15.952 3.52029 15.6244C3.33939 15.2968 3.0485 15.0436 2.69902 14.9097C2.79819 14.288 3.11536 13.7219 3.59377 13.3126C4.07219 12.9034 4.68062 12.6778 5.31018 12.6761H7.96385V14.8965ZM9.02531 16.3912C9.02531 16.4962 8.99418 16.5988 8.93587 16.6861C8.87755 16.7734 8.79466 16.8414 8.69768 16.8816C8.6007 16.9217 8.49399 16.9323 8.39104 16.9118C8.28808 16.8913 8.19352 16.8408 8.11929 16.7665C8.04507 16.6923 7.99452 16.5977 7.97404 16.4948C7.95357 16.3918 7.96408 16.2851 8.00425 16.1881C8.04441 16.0912 8.11244 16.0083 8.19972 15.95C8.287 15.8916 8.38961 15.8605 8.49458 15.8605C8.63529 15.8607 8.77019 15.9166 8.86969 16.0161C8.96918 16.1156 9.02515 16.2505 9.02531 16.3912ZM15.3941 16.3912C15.3941 16.4962 15.363 16.5988 15.3047 16.6861C15.2463 16.7734 15.1634 16.8414 15.0665 16.8816C14.9695 16.9217 14.8628 16.9323 14.7598 16.9118C14.6569 16.8913 14.5623 16.8408 14.4881 16.7665C14.4139 16.6923 14.3633 16.5977 14.3428 16.4948C14.3224 16.3918 14.3329 16.2851 14.373 16.1881C14.4132 16.0912 14.4812 16.0083 14.5685 15.95C14.6558 15.8916 14.7584 15.8605 14.8634 15.8605C15.0041 15.8607 15.139 15.9166 15.2385 16.0161C15.338 16.1156 15.3939 16.2505 15.3941 16.3912ZM5.84092 7.36879C5.5595 7.36847 5.2897 7.25653 5.0907 7.05754C4.89171 6.85854 4.77977 6.58874 4.77945 6.30732V3.12293C4.77977 2.84151 4.89171 2.57171 5.0907 2.37272C5.2897 2.17372 5.5595 2.06179 5.84092 2.06146H11.1482C11.4297 2.06179 11.6995 2.17372 11.8985 2.37272C12.0974 2.57171 12.2094 2.84151 12.2097 3.12293V6.30732C12.2094 6.58874 12.0974 6.85854 11.8985 7.05754C11.6995 7.25653 11.4297 7.36847 11.1482 7.36879H5.84092ZM2.65652 16.3912C2.65652 16.4962 2.62539 16.5988 2.56708 16.6861C2.50876 16.7734 2.42587 16.8414 2.32889 16.8816C2.23191 16.9217 2.1252 16.9323 2.02225 16.9118C1.9193 16.8913 1.82473 16.8408 1.7505 16.7665C1.67628 16.6923 1.62573 16.5977 1.60525 16.4948C1.58478 16.3918 1.59529 16.2851 1.63546 16.1881C1.67563 16.0912 1.74365 16.0083 1.83093 15.95C1.91821 15.8916 2.02082 15.8605 2.12579 15.8605C2.2665 15.8607 2.4014 15.9166 2.5009 16.0161C2.60039 16.1156 2.65636 16.2505 2.65652 16.3912Z" fill="white" stroke="white" stroke-width="0.1"/>
</svg>
